M48
;DRILL file {Pcbnew (2012-apr-16-27)-stable} date Sa 19 Apr 2014 21:34:35 CEST
;FORMAT={-:-/ absolute / metric / decimal}
FMAT,2
METRIC,TZ
T1C0.813
T2C3.048
%
G90
G05
M71
T1
X182.880Y69.850
X182.880Y73.660
X182.880Y77.470
X182.880Y83.820
X182.880Y87.630
X182.880Y91.440
X185.420Y69.850
X185.420Y73.660
X185.420Y77.470
X185.420Y83.820
X185.420Y87.630
X185.420Y91.440
X190.500Y73.025
X190.500Y75.565
X190.500Y78.105
X190.500Y80.645
X190.500Y83.185
X190.500Y85.725
X190.500Y88.265
X193.040Y67.310
X193.040Y93.980
X195.580Y67.310
X195.580Y93.980
X198.120Y73.025
X198.120Y75.565
X198.120Y78.105
X198.120Y80.645
X198.120Y83.185
X198.120Y85.725
X198.120Y88.265
X203.200Y69.850
X203.200Y73.660
X203.200Y77.470
X203.200Y83.820
X203.200Y87.630
X203.200Y91.440
X205.740Y69.850
X205.740Y73.660
X205.740Y77.470
X205.740Y83.820
X205.740Y87.630
X205.740Y91.440
T2
X184.150Y62.865
X184.150Y98.425
X204.470Y62.865
X204.470Y98.425
T0
M30
