M48
;DRILL file {PCBnew (2011-05-25)-stable} date Fri 11 Oct 2013 08:49:43 PM CEST
;FORMAT={-:-/ absolute / metric / decimal}
FMAT,2
METRIC,TZ
T1C0.813
T2C0.899
T3C3.048
%
G90
G05
M71
T1
X142.875Y67.310
X142.875Y69.850
X142.875Y72.390
X142.875Y74.930
X142.875Y77.470
X142.875Y80.010
X142.875Y82.550
X142.875Y85.090
X142.875Y87.630
X142.875Y90.170
X142.875Y92.710
X142.875Y95.250
X160.655Y67.310
X160.655Y69.850
X160.655Y72.390
X160.655Y74.930
X160.655Y77.470
X160.655Y80.010
X160.655Y82.550
X160.655Y85.090
X160.655Y87.630
X160.655Y90.170
X160.655Y92.710
X160.655Y95.250
T2
X149.565Y97.706
X153.965Y97.706
T3
X143.256Y99.822
X154.965Y68.834
X160.274Y99.822
T0
M30
